<svg xmlns="http://www.w3.org/2000/svg" viewBox="0 0 360 400" width="360" height="400" role="img" aria-label="Ilustrasi tiga guru berseragam khaki">
  <title>Guru berseragam khaki</title>
  <defs>
    <linearGradient id="khaki" x1="0" y1="0" x2="0" y2="1">
      <stop offset="0%" stop-color="#D3C298" />
      <stop offset="100%" stop-color="#B9A87C" />
    </linearGradient>
    <linearGradient id="khaki2" x1="0" y1="0" x2="0" y2="1">
      <stop offset="0%" stop-color="#C7B489" />
      <stop offset="100%" stop-color="#AB9A6F" />
    </linearGradient>
  </defs>

  <!-- ================= GURU LAKI-LAKI (kiri) ================= -->
  <g transform="translate(70,0)">
    <path d="M-48 400 L-48 232 Q-48 176 0 176 Q48 176 48 232 L48 400 Z" fill="url(#khaki)" />
    <path d="M-14 178 L0 212 L14 178 L8 176 L0 192 L-8 176 Z" fill="#FFFFFF" opacity=".92" />
    <rect x="-3" y="248" width="20" height="12" rx="3" fill="#FFFFFF" opacity=".95" />
    <rect x="-3" y="248" width="8" height="12" rx="3" fill="#2646B0" opacity=".8" />
    <path d="M-48 250 Q-62 262 -62 300 L-62 400 L-40 400 L-40 268 Z" fill="url(#khaki2)" />
    <path d="M48 250 Q62 262 62 300 L62 400 L40 400 L40 268 Z" fill="url(#khaki2)" />
    <rect x="-13" y="150" width="26" height="36" rx="10" fill="#E4B58C" />
    <circle cx="0" cy="122" r="36" fill="#F2C9A0" />
    <circle cx="-36" cy="126" r="7" fill="#E4B58C" />
    <circle cx="36" cy="126" r="7" fill="#E4B58C" />
    <path d="M-36 118 A36 36 0 0 1 36 118 L36 108 Q0 84 -36 108 Z" fill="#2E2A26" />
    <circle cx="-13" cy="124" r="3.6" fill="#2E2A26" />
    <circle cx="13" cy="124" r="3.6" fill="#2E2A26" />
    <path d="M-9 140 Q0 147 9 140" stroke="#B9805A" stroke-width="2.6" stroke-linecap="round" fill="none" />
  </g>

  <!-- ================= GURU PEREMPUAN BERHIJAB (tengah) ================= -->
  <g transform="translate(180,0)">
    <path d="M-46 400 L-46 236 Q-46 184 0 184 Q46 184 46 236 L46 400 Z" fill="url(#khaki)" />
    <path d="M-13 186 L0 216 L13 186 L7 184 L0 198 L-7 184 Z" fill="#FFFFFF" opacity=".92" />
    <path d="M-44 400 L-44 154 Q-44 88 0 88 Q44 88 44 154 L44 400 Z" fill="#9FD0F7" />
    <path d="M-44 400 L-44 154 Q-44 88 0 88 Q44 88 44 154 L44 400 Z" fill="none" stroke="#7FB6E4" stroke-width="2" />
    <ellipse cx="0" cy="140" rx="28" ry="33" fill="#F2C9A0" />
    <path d="M-28 128 Q0 112 28 128 Q26 100 -0 100 Q-26 100 -28 128 Z" fill="#E9BE95" opacity=".55" />
    <circle cx="-11" cy="138" r="3.4" fill="#2E2A26" />
    <circle cx="11" cy="138" r="3.4" fill="#2E2A26" />
    <path d="M-8 154 Q0 160 8 154" stroke="#B9805A" stroke-width="2.4" stroke-linecap="round" fill="none" />
    <rect x="-2" y="256" width="18" height="12" rx="3" fill="#FFFFFF" opacity=".95" transform="translate(-8,0)" />
  </g>

  <!-- ================= GURU PEREMPUAN (kanan) ================= -->
  <g transform="translate(290,0)">
    <path d="M-44 400 L-44 238 Q-44 188 0 188 Q44 188 44 238 L44 400 Z" fill="url(#khaki2)" />
    <path d="M-13 190 L0 218 L13 190 L7 188 L0 202 L-7 188 Z" fill="#FFFFFF" opacity=".92" />
    <path d="M-42 400 L-42 120 Q-42 84 0 84 Q42 84 42 120 L42 400 L18 400 L18 150 L-18 150 L-18 400 Z" fill="#2E2A26" />
    <rect x="-12" y="152" width="24" height="34" rx="10" fill="#E4B58C" />
    <circle cx="0" cy="124" r="34" fill="#F2C9A0" />
    <circle cx="-34" cy="128" r="7" fill="#E4B58C" />
    <circle cx="34" cy="128" r="7" fill="#E4B58C" />
    <path d="M-34 112 A34 34 0 0 1 34 112 L34 100 Q0 78 -34 100 Z" fill="#2E2A26" />
    <path d="M-40 104 Q0 70 40 104 Q44 66 0 62 Q-44 66 -40 104 Z" fill="#2E2A26" />
    <circle cx="-12" cy="126" r="3.6" fill="#2E2A26" />
    <circle cx="12" cy="126" r="3.6" fill="#2E2A26" />
    <path d="M-8 142 Q0 149 8 142" stroke="#B9805A" stroke-width="2.6" stroke-linecap="round" fill="none" />
    <rect x="-10" y="258" width="20" height="12" rx="3" fill="#FFFFFF" opacity=".95" />
  </g>
</svg>
